<svg width="1200" height="627" viewBox="0 0 1200 627" fill="none" xmlns="http://www.w3.org/2000/svg" role="img" aria-labelledby="title desc">
  <title id="title">Zoom Search LinkedIn cover</title>
  <desc id="desc">A LinkedIn cover image for Zoom Search, a precise AI web search library for Python.</desc>
  <rect width="1200" height="627" fill="#08111F"/>
  <path d="M0 410C143 344 251 373 402 305C559 234 681 219 834 279C985 338 1070 399 1200 350V627H0V410Z" fill="#0E5E66" opacity="0.72"/>
  <path d="M0 494C139 431 267 454 422 404C593 349 731 370 879 421C1010 466 1098 511 1200 466V627H0V494Z" fill="#1B8A72" opacity="0.62"/>

  <g font-family="Inter, ui-sans-serif, system-ui, -apple-system, BlinkMacSystemFont, Segoe UI, sans-serif">
    <g transform="translate(84 82)">
      <rect width="206" height="44" rx="22" fill="#E6FFFA" opacity="0.98"/>
      <text x="103" y="29" text-anchor="middle" fill="#0F766E" font-size="17" font-weight="800">PYTHON LIBRARY</text>
    </g>

    <text x="84" y="213" fill="#F8FAFC" font-size="78" font-weight="900">Zoom Search</text>
    <text x="88" y="274" fill="#C7D2FE" font-size="29" font-weight="760">Precise AI web search for Python</text>
    <text x="88" y="315" fill="#CBD5E1" font-size="21" font-weight="560">Query rewriting, source zoom-in,</text>
    <text x="88" y="346" fill="#CBD5E1" font-size="21" font-weight="560">traceable evidence, and LLM answer synthesis.</text>

    <g transform="translate(88 385)">
      <rect width="382" height="64" rx="16" fill="#F8FAFC"/>
      <circle cx="32" cy="32" r="7" fill="#EF4444"/>
      <circle cx="56" cy="32" r="7" fill="#F59E0B"/>
      <circle cx="80" cy="32" r="7" fill="#22C55E"/>
      <text x="191" y="32" text-anchor="middle" dominant-baseline="middle" fill="#0F172A" font-size="23" font-weight="850">pip install zoom-search</text>
    </g>

    <g transform="translate(88 489)">
      <text x="0" y="0" fill="#A7F3D0" font-size="23" font-weight="800">github.com/goofrey/zoom-search</text>
      <text x="0" y="38" fill="#E2E8F0" font-size="20" font-weight="620">Better source discovery. Stronger grounded answers.</text>
    </g>

    <g transform="translate(775 96)">
      <rect width="340" height="386" rx="28" fill="#F8FAFC"/>
      <text x="34" y="52" fill="#0F172A" font-size="24" font-weight="900">Evidence Workflow</text>
      <text x="170" y="82" text-anchor="middle" dominant-baseline="middle" fill="#64748B" font-size="16" font-weight="620">From broad search to focused sources</text>

      <g transform="translate(34 116)">
        <rect width="272" height="58" rx="14" fill="#E0F2FE"/>
        <text x="24" y="37" fill="#075985" font-size="19" font-weight="850">1. Rewrite question</text>
      </g>
      <path d="M945 286V314" stroke="#94A3B8" stroke-width="5" stroke-linecap="round"/>
      <path d="M945 314L932 301M945 314L958 301" stroke="#94A3B8" stroke-width="5" stroke-linecap="round" stroke-linejoin="round"/>

      <g transform="translate(34 214)">
        <rect width="272" height="58" rx="14" fill="#DCFCE7"/>
        <text x="24" y="37" fill="#166534" font-size="19" font-weight="850">2. Search broadly</text>
      </g>
      <path d="M945 384V412" stroke="#94A3B8" stroke-width="5" stroke-linecap="round"/>
      <path d="M945 412L932 399M945 412L958 399" stroke="#94A3B8" stroke-width="5" stroke-linecap="round" stroke-linejoin="round"/>

      <g transform="translate(34 312)">
        <rect width="272" height="58" rx="14" fill="#F0FDFA"/>
        <text x="24" y="37" fill="#0F766E" font-size="19" font-weight="850">3. Zoom into sources</text>
      </g>
    </g>

    <g transform="translate(777 508)">
      <rect width="338" height="66" rx="18" fill="#F8FAFC" opacity="0.96"/>
      <text x="169" y="28" text-anchor="middle" fill="#0F172A" font-size="17" font-weight="850">Evidence-first AI search</text>
      <text x="169" y="50" text-anchor="middle" fill="#475569" font-size="15" font-weight="650">Benchmarked with real providers</text>
    </g>
  </g>
</svg>
