<svg width="1120" height="560" viewBox="0 0 1120 560" fill="none" xmlns="http://www.w3.org/2000/svg" role="img" aria-labelledby="title desc">
  <title id="title">Zoom Search quality versus cost benchmark summary</title>
  <desc id="desc">Benchmark summary showing good result and answer quality gains alongside extra latency, tokens, and search requests.</desc>
  <rect width="1120" height="560" rx="28" fill="#0B1020"/>
  <path d="M0 392C132 331 218 370 350 307C490 240 587 229 726 288C856 343 925 400 1044 356C1078 344 1100 333 1120 337V560H0V392Z" fill="#123E59" opacity="0.72"/>
  <path d="M0 458C118 407 212 426 349 379C490 330 621 345 743 392C860 437 950 488 1052 444C1084 430 1104 422 1120 426V560H0V458Z" fill="#136F63" opacity="0.58"/>
  <g font-family="Inter, ui-sans-serif, system-ui, -apple-system, BlinkMacSystemFont, Segoe UI, sans-serif">
    <text x="560" y="52" text-anchor="middle" fill="#F8FAFC" font-size="28" font-weight="800">Better Evidence Quality With Controlled Extra Cost</text>
    <text x="560" y="82" text-anchor="middle" fill="#CBD5E1" font-size="15">Historical evaluations: direct search baseline vs Zoom Search workflow.</text>

    <g transform="translate(54 118)">
      <rect width="1012" height="348" rx="18" fill="#F8FAFC"/>
      <text x="30" y="44" fill="#0F172A" font-size="16" font-weight="800">Benchmark cases</text>
      <text x="30" y="80" fill="#475569" font-size="13" font-weight="700">Case</text>
      <text x="360" y="80" fill="#475569" font-size="13" font-weight="700">Good results</text>
      <text x="535" y="80" fill="#475569" font-size="13" font-weight="700">Answer quality</text>
      <text x="720" y="80" fill="#475569" font-size="13" font-weight="700">Extra time</text>
      <text x="850" y="80" fill="#475569" font-size="13" font-weight="700">Extra tokens</text>

      <g transform="translate(30 104)">
        <rect width="952" height="58" rx="12" fill="#EFF6FF"/>
        <text x="16" y="24" fill="#0F172A" font-size="14" font-weight="800">Playwright auth reuse</text>
        <text x="16" y="43" fill="#64748B" font-size="12">Official docs and storageState evidence</text>
        <text x="330" y="36" fill="#047857" font-size="18" font-weight="800">5 -> 7</text>
        <text x="508" y="36" fill="#047857" font-size="18" font-weight="800">6.6 -> 8.7</text>
        <text x="700" y="36" fill="#B45309" font-size="16" font-weight="800">+5.89s</text>
        <text x="830" y="36" fill="#B45309" font-size="16" font-weight="800">+2,324</text>
      </g>

      <g transform="translate(30 178)">
        <rect width="952" height="58" rx="12" fill="#ECFDF5"/>
        <text x="16" y="24" fill="#0F172A" font-size="14" font-weight="800">GitHub Actions secrets</text>
        <text x="16" y="43" fill="#64748B" font-size="12">Syntax-sensitive reusable workflow answer</text>
        <text x="330" y="36" fill="#047857" font-size="18" font-weight="800">1 -> 4</text>
        <text x="508" y="36" fill="#047857" font-size="18" font-weight="800">2.0 -> 7.8</text>
        <text x="700" y="36" fill="#B45309" font-size="16" font-weight="800">+8.93s</text>
        <text x="830" y="36" fill="#B45309" font-size="16" font-weight="800">+2,936</text>
      </g>

      <g transform="translate(30 252)">
        <rect width="952" height="58" rx="12" fill="#F5F3FF"/>
        <text x="16" y="24" fill="#0F172A" font-size="14" font-weight="800">Hydrangea pruning</text>
        <text x="16" y="43" fill="#64748B" font-size="12">Branch-specific comparison search</text>
        <text x="330" y="36" fill="#047857" font-size="18" font-weight="800">4 -> 12</text>
        <text x="508" y="36" fill="#047857" font-size="18" font-weight="800">7.2 -> 8.4</text>
        <text x="700" y="36" fill="#B45309" font-size="16" font-weight="800">+12.17s</text>
        <text x="830" y="36" fill="#B45309" font-size="16" font-weight="800">+5,073</text>
      </g>
    </g>

    <g transform="translate(190 494)">
      <rect width="740" height="34" rx="17" fill="#F8FAFC" opacity="0.94"/>
      <text x="370" y="23" text-anchor="middle" fill="#0F172A" font-size="14" font-weight="800">Trade a bounded extra budget for better source coverage and stronger final answers.</text>
    </g>
  </g>
</svg>
